<svg width="23" height="22" viewBox="0 0 23 22" fill="none" xmlns="http://www.w3.org/2000/svg">
<path d="M11.3678 2.66016C6.29837 2.66016 2.18408 6.58671 2.18408 11.4248C2.18408 16.2629 6.29837 20.1894 11.3678 20.1894C16.4371 20.1894 20.5514 16.2629 20.5514 11.4248C20.5514 6.58671 16.4371 2.66016 11.3678 2.66016ZM6.8402 16.929C7.2351 16.1402 9.64123 15.3689 11.3678 15.3689C13.0943 15.3689 15.5096 16.1402 15.8953 16.929C14.6463 17.8755 13.0759 18.4365 11.3678 18.4365C9.65959 18.4365 8.08918 17.8755 6.8402 16.929ZM17.2086 15.6581C15.8953 14.1331 12.7086 13.6159 11.3678 13.6159C10.0269 13.6159 6.8402 14.1331 5.52694 15.6581C4.5902 14.4836 4.02082 13.0199 4.02082 11.4248C4.02082 7.55958 7.31776 4.41308 11.3678 4.41308C15.4178 4.41308 18.7147 7.55958 18.7147 11.4248C18.7147 13.0199 18.1453 14.4836 17.2086 15.6581V15.6581ZM11.3678 6.16601C9.58612 6.16601 8.15347 7.53329 8.15347 9.23363C8.15347 10.934 9.58612 12.3012 11.3678 12.3012C13.1494 12.3012 14.582 10.934 14.582 9.23363C14.582 7.53329 13.1494 6.16601 11.3678 6.16601ZM11.3678 10.5483C10.6055 10.5483 9.9902 9.96109 9.9902 9.23363C9.9902 8.50616 10.6055 7.91893 11.3678 7.91893C12.13 7.91893 12.7453 8.50616 12.7453 9.23363C12.7453 9.96109 12.13 10.5483 11.3678 10.5483Z" fill="#7F7F7F"/>
</svg>
