<svg width="30" height="30" viewBox="0 0 30 30" fill="none" xmlns="http://www.w3.org/2000/svg">
<path fill-rule="evenodd" clip-rule="evenodd" d="M6.15338 12.4986L13.6952 4.92243L14.6338 5.86523L7.09192 13.4414L6.15338 12.4986Z" fill="#4C4CBE"/>
<path fill-rule="evenodd" clip-rule="evenodd" d="M8.65631 15.0142L16.1982 7.43805L17.1367 8.38086L9.59485 15.957L8.65631 15.0142Z" fill="#4C4CBE"/>
<path fill-rule="evenodd" clip-rule="evenodd" d="M13.9756 20.356L21.5175 12.7798L22.4561 13.7227L14.9142 21.2988L13.9756 20.356Z" fill="#4C4CBE"/>
<path fill-rule="evenodd" clip-rule="evenodd" d="M16.4766 22.8697L24.0185 15.2935L24.957 16.2363L17.4152 23.8125L16.4766 22.8697Z" fill="#4C4CBE"/>
<path fill-rule="evenodd" clip-rule="evenodd" d="M16.4783 22.8709C13.875 25.486 9.66361 25.4954 7.07189 22.8919C4.48018 20.2884 4.48955 16.0579 7.09284 13.4428L6.1543 12.5C3.03035 15.6381 3.0191 20.7148 6.12916 23.839C9.23922 26.9632 14.2929 26.9518 17.4168 23.8137L16.4783 22.8709Z" fill="#4C4CBE"/>
<path fill-rule="evenodd" clip-rule="evenodd" d="M21.5155 12.7801L22.4541 13.7229C24.8838 11.2821 24.8926 7.33361 22.4736 4.90368C20.0547 2.47375 16.1241 2.48255 13.6943 4.92332L14.6329 5.86613C16.5419 3.94838 19.6303 3.94147 21.5309 5.8507C23.4315 7.75993 23.4246 10.8623 21.5155 12.7801Z" fill="#4C4CBE"/>
<path fill-rule="evenodd" clip-rule="evenodd" d="M8.65625 15.0137C6.92073 16.7571 6.91447 19.5774 8.64228 21.3131C10.3701 23.0488 13.1777 23.0425 14.9132 21.2991L13.9747 20.3563C12.7598 21.5766 10.7945 21.581 9.58502 20.3661C8.37555 19.1511 8.37993 17.1769 9.59479 15.9565L8.65625 15.0137Z" fill="#4C4CBE"/>
</svg>
