<svg width="24" height="25" viewBox="0 0 24 25" fill="none" xmlns="http://www.w3.org/2000/svg">
<path d="M15.5 14.9483H14.71L14.43 14.6791C15.41 13.5425 16 12.0668 16 10.4615C16 6.88197 13.09 3.98047 9.5 3.98047C5.91 3.98047 3 6.88197 3 10.4615C3 14.041 5.91 16.9425 9.5 16.9425C11.11 16.9425 12.59 16.3542 13.73 15.3771L14 15.6563V16.444L19 21.4194L20.49 19.9337L15.5 14.9483V14.9483ZM9.5 14.9483C7.01 14.9483 5 12.9442 5 10.4615C5 7.97876 7.01 5.97463 9.5 5.97463C11.99 5.97463 14 7.97876 14 10.4615C14 12.9442 11.99 14.9483 9.5 14.9483Z" fill="#6C63FF"/>
</svg>
