<svg width="27" height="22" viewBox="0 0 27 22" fill="none" xmlns="http://www.w3.org/2000/svg">
<path d="M19.8461 7.01219H18.7435V5.25927C18.7435 2.84023 16.2737 0.876953 13.2307 0.876953C10.1876 0.876953 7.71785 2.84023 7.71785 5.25927V7.01219H6.61528C5.40246 7.01219 4.41016 7.80101 4.41016 8.76512V17.5297C4.41016 18.4938 5.40246 19.2827 6.61528 19.2827H19.8461C21.0589 19.2827 22.0512 18.4938 22.0512 17.5297V8.76512C22.0512 7.80101 21.0589 7.01219 19.8461 7.01219ZM9.92298 5.25927C9.92298 3.80434 11.4004 2.62988 13.2307 2.62988C15.0609 2.62988 16.5384 3.80434 16.5384 5.25927V7.01219H9.92298V5.25927ZM19.8461 17.5297H6.61528V8.76512H19.8461V17.5297ZM13.2307 14.9004C14.4435 14.9004 15.4358 14.1115 15.4358 13.1474C15.4358 12.1833 14.4435 11.3945 13.2307 11.3945C12.0178 11.3945 11.0255 12.1833 11.0255 13.1474C11.0255 14.1115 12.0178 14.9004 13.2307 14.9004Z" fill="#333333"/>
</svg>
